<?xml version="1.0" encoding="UTF-8"?>
<svg width="324px" height="55px" viewBox="0 0 324 55" version="1.1" xmlns="http://www.w3.org/2000/svg" xmlns:xlink="http://www.w3.org/1999/xlink">
    <!-- Generator: Sketch 58 (84663) - https://sketch.com -->
    <title>logo_white</title>
    <desc>Created with Sketch.</desc>
    <g id="Page-1" stroke="none" stroke-width="1" fill="none" fill-rule="evenodd">
        <g id="Artboard" transform="translate(-28.000000, -73.000000)" fill="#FFFFFF" fill-rule="nonzero">
            <g id="logo_white" transform="translate(28.000000, 73.000000)">
                <g id="Group" transform="translate(63.000000, 14.000000)">
                    <path d="M241.882675,26.7739218 L241.882675,1.2718357 C241.882675,0.88660782 242.201002,0.53990272 242.638702,0.53990272 L251.989569,0.53990272 C256.883853,0.53990272 260.902736,4.39218159 260.902736,9.05343903 C260.902736,13.8302648 256.883853,17.7210665 252.02936,17.7210665 L247.055495,17.7210665 L247.055495,26.7739218 C247.055495,27.1591497 246.697376,27.5058548 246.299467,27.5058548 L242.638702,27.5058548 C242.201002,27.5058548 241.882675,27.1591497 241.882675,26.7739218 Z M247.055495,13.0212862 L251.830406,13.0212862 C254.058697,13.0212862 255.769707,11.2877607 255.769707,9.01491622 C255.769707,6.89616287 254.058697,5.27820573 251.830406,5.27820573 L247.055495,5.27820573 L247.055495,13.0212862 Z" id="Shape"></path>
                    <path d="M0,17.4538768 L0,1.12021437 C0,0.73498649 0.358118314,0.38828139 0.756027548,0.38828139 L4.53616528,0.38828139 C4.97386544,0.38828139 5.29219283,0.73498649 5.29219283,1.12021437 L5.29219283,17.1842173 C5.29219283,20.4586543 7.60006641,22.7314988 11.0618768,22.7314988 C14.5236871,22.7314988 16.8713515,20.4586543 16.8713515,17.22274 L16.8713515,1.12021437 C16.8713515,0.73498649 17.1896789,0.38828139 17.6273791,0.38828139 L21.4075168,0.38828139 C21.8054261,0.38828139 22.1635444,0.73498649 22.1635444,1.12021437 L22.1635444,17.4538768 C22.1635444,23.3093407 17.3488427,27.7394613 11.0618768,27.7394613 C4.81470174,27.7394613 0,23.3093407 0,17.4538768 Z M31.7423808,26.7739218 L31.7423808,1.2718357 C31.7423808,0.88660782 32.0607082,0.53990272 32.4984084,0.53990272 L43.8786125,0.53990272 C48.6535233,0.53990272 52.5530338,4.23809044 52.5530338,8.8223023 C52.5530338,12.3663989 50.1257875,15.255608 46.6639772,16.6039056 L52.1153337,26.3886939 C52.3938701,26.8894902 52.1153337,27.5058548 51.438888,27.5058548 L47.260841,27.5058548 C46.9027227,27.5058548 46.7037681,27.3132408 46.6241862,27.1591497 L41.3319934,16.9506107 L36.9152009,16.9506107 L36.9152009,26.7739218 C36.9152009,27.1591497 36.5570826,27.5058548 36.1591734,27.5058548 L32.4984084,27.5058548 C32.0607082,27.5058548 31.7423808,27.1591497 31.7423808,26.7739218 L31.7423808,26.7739218 Z M36.9549918,12.8286723 L43.4409124,12.8286723 C45.5498313,12.8286723 47.3802138,11.056624 47.3802138,8.89934786 C47.3802138,6.85764007 45.5498313,5.16263736 43.4409124,5.16263736 L36.9549918,5.16263736 L36.9549918,12.8286723 Z M75.8425148,13.6761736 L75.8425148,13.8687876 C78.1503883,14.6392434 80.6174255,16.4498144 80.6174255,20.0709566 C80.6174255,24.3855089 76.7974971,27.5058548 71.9430045,27.5058548 L62.3136011,27.5058548 C61.8759006,27.5058548 61.5575731,27.1591497 61.5575731,26.7739218 L61.5575731,1.27183571 C61.5575731,0.88660782 61.8759006,0.53990272 62.3136011,0.53990272 L71.4257227,0.53990272 C76.1608422,0.53990272 79.8216075,3.62172582 79.8216075,7.66661863 C79.8216075,10.5558278 77.9116427,12.6745811 75.8425148,13.6761736 L75.8425148,13.6761736 Z M66.4533298,11.8656026 L70.7905406,11.8656026 C72.8198773,11.8656026 74.1329778,10.3246911 74.1329778,8.39855158 C74.1329778,6.47241216 72.8198773,5.12411457 70.7905406,5.12411457 L66.4533298,5.12411457 L66.4533298,11.8656026 Z M66.4533298,22.9601657 L71.3476131,22.9601657 C73.3371597,22.9601657 74.8492146,21.457777 74.8492146,19.454592 C74.8492146,17.5284526 73.3371597,16.1031093 71.3476131,16.1031093 L66.4533298,16.1031093 L66.4533298,22.9601657 Z M86.7172281,27.5058548 C86.1203638,27.5058548 85.8020369,27.0050586 86.0407819,26.5042623 L98.4157594,0.578425511 C98.5351319,0.347288778 98.7340868,0.154674835 99.0922049,0.154674835 L99.4901143,0.154674835 C99.8880236,0.154674835 100.047187,0.347288778 100.16656,0.578425511 L112.422164,26.5042623 C112.66091,27.0050586 112.342582,27.5058548 111.745719,27.5058548 L108.283908,27.5058548 C107.687045,27.5058548 107.408508,27.274718 107.129972,26.735399 L105.180216,22.5749379 L93.2827305,22.5749379 L91.3329751,26.735399 C91.1738114,27.1206269 90.8156933,27.5058548 90.1790383,27.5058548 L86.7172281,27.5058548 Z M94.7579399,18.2989083 L102.755916,18.2989083 L98.7768232,9.82389479 L98.6574507,9.82389479 L94.7579399,18.2989083 Z M119.714221,26.7739218 L119.714221,0.848085029 C119.714221,0.462857144 120.07234,0.154674835 120.470249,0.154674835 L121.067113,0.154674835 C121.345649,0.154674835 121.544604,0.231720411 121.743559,0.424334353 L137.978256,17.1817474 L138.057837,17.1817474 L138.057837,1.2718357 C138.057837,0.88660782 138.376164,0.53990272 138.813865,0.53990272 L142.47463,0.53990272 C142.872539,0.53990272 143.230657,0.88660782 143.230657,1.2718357 L143.230657,27.1976725 C143.230657,27.5829004 142.872539,27.8910827 142.47463,27.8910827 L141.917557,27.8910827 C141.63902,27.8910827 141.440066,27.8140371 141.241111,27.6214231 L124.926833,10.2091227 L124.847251,10.2091227 L124.847251,26.7739218 C124.847251,27.1591497 124.528923,27.5058548 124.091223,27.5058548 L120.470249,27.5058548 C120.07234,27.5058548 119.714221,27.1591497 119.714221,26.7739218 Z M150.967778,14.0614015 C150.967778,6.35684379 157.374117,0.154674835 165.332302,0.154674835 C169.351185,0.154674835 172.255922,1.38740407 174.961705,3.73729418 C175.319823,4.04547649 175.319823,4.50774995 175.001497,4.81593226 L172.57425,7.24286797 C172.295714,7.55105027 171.897804,7.55105027 171.579477,7.24286797 C169.908258,5.81752477 167.679966,4.97002342 165.451674,4.97002342 C160.358436,4.97002342 156.578298,9.09196178 156.578298,13.9458332 C156.578298,18.7611818 160.398227,22.8445974 165.491466,22.8445974 C167.878921,22.8445974 169.908258,21.9585732 171.579477,20.6487984 C171.897804,20.3791389 172.335504,20.4176617 172.57425,20.6487984 L175.041287,23.1142569 C175.359615,23.3839164 175.280033,23.8847127 175.001497,24.1543722 C172.295714,26.6968763 168.873694,27.8910827 165.332302,27.8910827 C157.374117,27.8910827 150.967778,21.7659593 150.967778,14.0614015 L150.967778,14.0614015 Z M183.528544,26.7739218 L183.528544,1.2718357 C183.528544,0.88660782 183.846872,0.53990272 184.284573,0.53990272 L195.664776,0.53990272 C200.439687,0.53990272 204.339198,4.23809044 204.339198,8.8223023 C204.339198,12.3663989 201.911951,15.255608 198.450141,16.6039056 L203.901497,26.3886939 C204.180034,26.8894902 203.901497,27.5058548 203.225052,27.5058548 L199.047005,27.5058548 C198.688887,27.5058548 198.489932,27.3132408 198.41035,27.1591497 L193.118157,16.9506107 L188.701365,16.9506107 L188.701365,26.7739218 C188.701365,27.1591497 188.343246,27.5058548 187.945337,27.5058548 L184.284573,27.5058548 C183.846872,27.5058548 183.528544,27.1591497 183.528544,26.7739218 Z M188.741156,12.8286723 L195.227076,12.8286723 C197.335995,12.8286723 199.166378,11.056624 199.166378,8.89934786 C199.166378,6.85764007 197.335995,5.16263736 195.227076,5.16263736 L188.741156,5.16263736 L188.741156,12.8286723 Z" id="Shape"></path>
                    <path d="M213.377992,5.03422807 L222.434521,5.03422807 L232.356072,5.03422807 C232.609399,5.03422807 232.814762,4.83227468 232.814762,4.58315255 L232.814762,0.669954997 C232.814762,0.420832866 232.609399,0.218879482 232.356072,0.218879482 L222.434521,0.218879482 L213.377992,0.218879482 C213.124664,0.218879482 212.919301,0.420832866 212.919301,0.669954997 L212.919301,4.58315255 C212.919301,4.83227468 213.124664,5.03422807 213.377992,5.03422807 Z" id="Path"></path>
                    <path d="M212.919301,17.9019095 C212.919301,12.5515223 217.318993,8.24446047 222.853196,8.24446047 C228.3874,8.24446047 232.814762,12.5515223 232.814762,17.9019095 C232.814762,23.2522969 228.3874,27.5058548 222.853196,27.5058548 C217.318993,27.5058548 212.919301,23.2522969 212.919301,17.9019095 Z M217.893166,17.8960939 C217.893166,20.5340675 220.125445,22.6905062 222.856195,22.6905062 C225.586945,22.6905062 227.840897,20.5340675 227.840897,17.8960939 C227.840897,15.2581204 225.586945,13.0598091 222.856195,13.0598091 C220.125445,13.0598091 217.893166,15.2581204 217.893166,17.8960939 L217.893166,17.8960939 Z" id="Shape"></path>
                </g>
                <path d="M30.6428571,0 C31.9446712,0 33,1.05711483 33,2.36113206 L33,30.7840054 L33,35.4218068 C33,36.0750129 32.6191949,36.6639575 32.0330329,36.934016 L31.9274965,36.9783114 L18.8571429,41.9443304 L18.8571429,52.6388679 C18.8571429,53.9033695 17.8648043,54.9357057 16.6176452,54.9971104 L16.5,55 C15.2376349,55 14.2070428,54.0059821 14.1457419,52.7567123 L14.1428571,52.6388679 L14.1428571,41.9443304 L1.07250345,36.9783114 C0.462788894,36.7466499 0.0481107943,36.1811245 0.00391728268,35.5363596 L0,35.4218068 L0,2.36113206 C0,1.05711483 1.0553288,0 2.35714286,0 C3.65895691,0 4.71428571,1.05711483 4.71428571,2.36113206 L4.71428571,13.1025121 L14.1428571,16.6849397 L14.1428571,7.71929826 C14.1428571,6.45479671 15.1351957,5.42246048 16.3823548,5.36105581 L16.5,5.35816619 C17.7623651,5.35816619 18.7929572,6.35218415 18.8542581,7.60145393 L18.8571429,7.71929826 L18.8571429,16.6849397 L28.2857143,13.1025121 L28.2857143,2.36113206 C28.2857143,1.05711483 29.3410431,0 30.6428571,0 Z M28.2857143,27.5662168 L18.8571429,31.1492347 L18.8571429,35.6749345 L28.2857143,32.0925069 L28.2857143,27.5662168 Z M4.71428571,27.5668071 L4.71428571,32.0925069 L14.1428571,35.6749345 L14.1428571,31.1492347 L4.71428571,27.5668071 Z M18.8571429,21.5358855 L18.8571429,26.2982889 L28.2857143,22.7158612 L28.2857143,17.9534579 L18.8571429,21.5358855 Z M4.71428571,17.9534579 L4.71428571,22.7158612 L14.1428571,26.2982889 L14.1428571,21.5358855 L4.71428571,17.9534579 Z" id="Shape"></path>
            </g>
        </g>
    </g>
</svg>