<svg height="214" viewBox="0 0 666 214" width="666" xmlns="http://www.w3.org/2000/svg"><g fill="none" fill-rule="nonzero" transform="translate(60 60)"><g fill="#313131" transform="translate(106 23)"><path d="m407.771559 45.8981517v-43.71786192c0-.66039066.536644-1.25474226 1.274529-1.25474226h15.763914c8.250899 0 15.026028 6.60390663 15.026028 14.59463368 0 8.1888442-6.775129 14.8587899-14.958948 14.8587899h-8.38506v15.5191806c0 .6603906-.603725 1.2547422-1.274529 1.2547422h-6.171405c-.737885 0-1.274529-.5943516-1.274529-1.2547422zm8.720463-23.5759467h8.049658c3.756507 0 6.640968-2.971758 6.640968-6.8680629 0-3.6321486-2.884461-6.40578942-6.640968-6.40578942h-8.049658z"/><path d="m0 29.9209316v-28.0005641c0-.66039066.60372436-1.25474226 1.2745292-1.25474226h6.37264598c.73788533 0 1.2745292.5943516 1.2745292 1.25474226v27.5382907c0 5.6133206 3.89066812 9.5096255 9.72667022 9.5096255s9.7937506-3.8963049 9.7937506-9.4435865v-27.6043297c0-.66039066.5366439-1.25474226 1.2745292-1.25474226h6.372646c.6708049 0 1.2745292.5943516 1.2745292 1.25474226v28.0005641c0 10.0379381-8.1167385 17.6324307-18.715455 17.6324307-10.53163603 0-18.6483746-7.5944926-18.6483746-17.6324307zm53.5120596 15.9772201v-43.71786192c0-.66039066.5366439-1.25474226 1.2745292-1.25474226h19.1850185c8.0496581 0 14.6235455 6.33975037 14.6235455 14.19839928 0 6.0755941-4.0919095 11.0285241-9.9279116 13.3398914l9.1900263 16.7739228c.4695634.8585079 0 1.9151329-1.1403682 1.9151329h-7.0434509c-.6037243 0-.9391267-.3301953-1.0732877-.5943516l-8.9217044-17.5003525h-7.4459337v16.8399619c0 .6603906-.6037244 1.2547422-1.2745292 1.2547422h-6.1714046c-.7378853 0-1.2745292-.5943516-1.2745292-1.2547422zm8.7875435-23.906142h10.9341189c3.5552656 0 6.6409679-3.0377971 6.6409679-6.7359848 0-3.5000705-3.0857023-6.40578942-6.6409679-6.40578942h-10.9341189zm65.5575099 1.4528594v.3301954c3.890668 1.3207813 8.049658 4.4246174 8.049658 10.6322896 0 7.3963755-6.439726 12.7455398-14.623545 12.7455398h-16.233477c-.737886 0-1.27453-.5943516-1.27453-1.2547422v-43.71786192c0-.66039066.536644-1.25474226 1.27453-1.25474226h15.361431c7.982577 0 14.153982 5.28312531 14.153982 12.21722728 0 4.95293-3.219864 8.5850786-6.708049 10.3020943zm-15.828511-3.1038361h7.311773c3.421104 0 5.63476-2.6415626 5.63476-5.943516 0-3.3019533-2.213656-5.61332059-5.63476-5.61332059h-7.311773zm0 19.0192511h8.250899c3.354025 0 5.903083-2.5755236 5.903083-6.009555 0-3.3019533-2.549058-5.7453988-5.903083-5.7453988h-8.250899zm34.161361 7.7926098c-1.006208 0-1.542851-.8585078-1.140369-1.7170157l20.862031-44.44429161c.201241-.3962344.536644-.72642973 1.140368-.72642973h.670805c.670805 0 .939127.33019533 1.140368.72642973l20.660789 44.44429161c.402483.8585079-.134161 1.7170157-1.140368 1.7170157h-5.836002c-1.006207 0-1.475771-.3962344-1.945334-1.3207813l-3.286944-7.1322191h-20.057064l-3.286944 7.1322191c-.268322.6603907-.872046 1.3207813-1.945334 1.3207813zm13.555223-15.7833368h13.483178l-6.708049-14.5285946h-.201241zm42.071892 14.5285946v-44.44429165c0-.66039066.603725-1.18870319 1.27453-1.18870319h1.006207c.469563 0 .804966.13207813 1.140368.46227346l27.368838 28.72699388h.13416v-27.27413442c0-.66039066.536644-1.25474226 1.27453-1.25474226h6.171404c.670805 0 1.274529.5943516 1.274529 1.25474226v44.44429162c0 .6603907-.603724 1.1887032-1.274529 1.1887032h-.939127c-.469563 0-.804965-.1320781-1.140368-.4622735l-27.502998-29.8496579h-.134161v28.3967985c0 .6603906-.536644 1.2547422-1.274529 1.2547422h-6.104324c-.670805 0-1.27453-.5943516-1.27453-1.2547422zm52.687989-21.7928919c0-13.2078133 10.799958-23.84010294 24.216055-23.84010294 6.775129 0 11.672004 2.11325012 16.233477 6.14163316.603724.52831254.603724 1.32078133.067081 1.84909386l-4.09191 4.16046122c-.469563.5283125-1.140368.5283125-1.677012 0-2.81738-2.44344549-6.573888-3.89630495-10.330395-3.89630495-8.586302 0-14.958948 7.06618005-14.958948 15.38710245 0 8.2548833 6.439727 15.2550243 15.026029 15.2550243 4.024829 0 7.445934-1.5188985 10.263314-3.7642268.536644-.4622734 1.274529-.3962344 1.677012 0l4.15899 4.2265003c.536644.4622734.402483 1.3207813-.06708 1.7830548-4.561473 4.3585784-10.330395 6.4057894-16.300558 6.4057894-13.416097 0-24.216055-10.5002115-24.216055-23.7080248zm54.891713 21.7928919v-43.71786192c0-.66039066.536644-1.25474226 1.27453-1.25474226h19.185018c8.049658 0 14.623546 6.33975037 14.623546 14.19839928 0 6.0755941-4.09191 11.0285241-9.927912 13.3398914l9.190026 16.7739228c.469564.8585079 0 1.9151329-1.140368 1.9151329h-7.043451c-.603724 0-.939127-.3301953-1.073288-.5943516l-8.921704-17.5003525h-7.445934v16.8399619c0 .6603906-.603724 1.2547422-1.274529 1.2547422h-6.171404c-.737886 0-1.27453-.5943516-1.27453-1.2547422zm8.787544-23.906142h10.934119c3.555265 0 6.640968-3.0377971 6.640968-6.7359848 0-3.5000705-3.085703-6.40578942-6.640968-6.40578942h-10.934119z"/><path d="m359.717687 8.63010526h15.267713 16.725985c.427066 0 .773272-.34620581.773272-.77327231v-6.70833867c0-.42706651-.346206-.77327231-.773272-.77327231h-16.725985-15.267713c-.427066 0-.773272.3462058-.773272.77327231v6.70833867c0 .4270665.346206.77327231.773272.77327231z"/><path d="m358.944415 30.6889878c0-9.1720925 7.417105-16.555627 16.746797-16.555627s16.793445 7.3835345 16.793445 16.555627c0 9.1720926-7.463753 16.4639061-16.793445 16.4639061s-16.746797-7.2918135-16.746797-16.4639061zm8.385061-.0099696c0 4.5222404 3.763229 8.2189925 8.366792 8.2189925s8.403329-3.6967521 8.403329-8.2189925-3.799766-8.2907741-8.403329-8.2907741-8.366792 3.7685337-8.366792 8.2907741z"/></g><path d="m52.6 0c2.209139 0 4 1.790861 4 4v48.1512641 7.8569115c0 1.1065982-.6462147 2.1043308-1.6409138 2.5618376l-.1790921.0750409-22.1799941 8.4129459v18.117644c0 2.1421954-1.6839685 3.8910789-3.8003597 3.9951047l-.1996403.0048953c-2.1421954 0-3.8910789-1.6839684-3.9951047-3.8003596l-.0048953-.1996404v-18.117644l-22.17999414-8.4129459c-1.03466713-.3924583-1.7383633-1.3505164-1.81335835-2.4428143l-.00664751-.1940642v-56.0081756c0-2.209139 1.790861-4 4-4s4 1.790861 4 4v18.197l16 6.069v-15.1887166c0-2.1421954 1.6839685-3.8910789 3.8003597-3.99510472l.1996403-.00489531c2.1421954 0 3.8910789 1.68396843 3.9951047 3.80035963l.0048953.1996404v15.1887166l16-6.069v-18.197c0-2.209139 1.790861-4 4-4zm-4 46.7-16 6.07v7.667l16-6.069zm-40 .001v7.667l16 6.069v-7.667zm24-10.217v8.068l16-6.069v-8.068zm-24-6.069v8.068l16 6.069v-8.068z" fill="#fbc513"/></g></svg>