<svg height="422" viewBox="0 0 960 422" width="960" xmlns="http://www.w3.org/2000/svg"><g fill="none" fill-rule="nonzero" transform="translate(40 40)"><g fill="#313131" transform="translate(0 245.620609)"><path d="m815.543118 91.7963034v-87.43572384c0-1.32078133 1.073287-2.50948452 2.549058-2.50948452h31.527827c16.5018 0 30.052057 13.20781326 30.052057 29.18926736 0 16.3776884-13.550257 29.7175798-29.917896 29.7175798h-16.770121v31.0383612c0 1.3207813-1.207448 2.5094845-2.549058 2.5094845h-12.342809c-1.475771 0-2.549058-1.1887032-2.549058-2.5094845zm17.440925-47.1518934h16.099317c7.513014 0 13.281935-5.943516 13.281935-13.7361258 0-7.2642973-5.768921-12.8115788-13.281935-12.8115788h-16.099317z"/><path d="m0 59.8418632v-56.0011282c0-1.32078132 1.20744871-2.50948452 2.54905839-2.50948452h12.74529201c1.4757706 0 2.5490584 1.1887032 2.5490584 2.50948452v55.0765813c0 11.2266413 7.7813361 19.0192511 19.4533403 19.0192511 11.6720043 0 19.5875014-7.7926098 19.5875014-18.887173v-55.2086594c0-1.32078132 1.0732877-2.50948452 2.5490584-2.50948452h12.745292c1.3416096 0 2.5490584 1.1887032 2.5490584 2.50948452v56.0011282c0 20.0758762-16.2334772 35.2648615-37.4309102 35.2648615-21.063272 0-37.2967491-15.1889853-37.2967491-35.2648615zm107.024119 31.9544402v-87.43572384c0-1.32078133 1.073288-2.50948452 2.549059-2.50948452h38.370037c16.099316 0 29.247091 12.67950076 29.247091 28.39679856 0 12.1511882-8.183819 22.0570481-19.855824 26.6797828l18.380053 33.5478456c.939127 1.7170158 0 3.8302659-2.280736 3.8302659h-14.086902c-1.207449 0-1.878254-.6603907-2.146576-1.1887032l-17.843408-35.0007052h-14.891868v33.6799239c0 1.3207813-1.207449 2.5094845-2.549058 2.5094845h-12.342809c-1.475771 0-2.549059-1.1887032-2.549059-2.5094845zm17.575087-47.812284h21.868238c7.110531 0 13.281936-6.0755941 13.281936-13.4719696 0-7.000141-6.171405-12.8115788-13.281936-12.8115788h-21.868238zm131.115021 2.9057189v.6603906c7.781336 2.6415627 16.099316 8.8492349 16.099316 21.2645794 0 14.7927508-12.879453 25.4910796-29.247091 25.4910796h-32.466955c-1.47577 0-2.549058-1.1887032-2.549058-2.5094845v-87.43572384c0-1.32078133 1.073288-2.50948452 2.549058-2.50948452h30.722862c15.965155 0 28.307964 10.56625066 28.307964 24.43445456 0 9.9058599-6.439726 17.1701572-13.416096 20.6041887zm-31.657023-6.2076723h14.623545c6.84221 0 11.269522-5.2831253 11.269522-11.8870319s-4.427312-11.2266413-11.269522-11.2266413h-14.623545zm0 38.0385022h16.501799c6.708048 0 11.806165-5.1510471 11.806165-12.01911 0-6.6039067-5.098117-11.4907976-11.806165-11.4907976h-16.501799zm68.322721 15.5852197c-2.012414 0-3.085702-1.7170157-2.280736-3.4340315l41.724061-88.88858323c.402483-.79246879 1.073288-1.45285946 2.280736-1.45285946h1.34161c1.34161 0 1.878254.66039067 2.280737 1.45285946l41.321578 88.88858323c.804966 1.7170158-.268322 3.4340315-2.280737 3.4340315h-11.672004c-2.012414 0-2.951541-.7924688-3.890668-2.6415627l-6.573887-14.2644383h-40.11413l-6.573887 14.2644383c-.536644 1.3207814-1.744093 2.6415627-3.890668 2.6415627zm27.110448-31.5666737h26.966354l-13.416097-29.0571892h-.402483zm84.143784 29.0571892v-88.8885833c0-1.32078132 1.207448-2.37740639 2.549058-2.37740639h2.012415c.939126 0 1.609931.26415627 2.280736.92454693l54.737675 57.45398766h.268322v-54.54826874c0-1.32078133 1.073288-2.50948452 2.549058-2.50948452h12.342809c1.34161 0 2.549059 1.18870319 2.549059 2.50948452v88.88858324c0 1.3207814-1.207449 2.3774064-2.549059 2.3774064h-1.878253c-.939127 0-1.609932-.2641562-2.280737-.9245469l-55.005997-59.699316h-.268321v56.7935971c0 1.3207813-1.073288 2.5094845-2.549059 2.5094845h-12.208648c-1.34161 0-2.549058-1.1887032-2.549058-2.5094845zm105.375977-43.5857838c0-26.4156265 21.599916-47.68020589 48.43211-47.68020589 13.550258 0 23.344008 4.22650025 32.466954 12.28326629 1.207449 1.0566251 1.207449 2.6415627.134161 3.6981878l-8.183819 8.3209223c-.939127 1.0566251-2.280736 1.0566251-3.354024 0-5.634761-4.8868909-13.147775-7.7926098-20.660789-7.7926098-17.172604 0-29.917896 14.1323602-29.917896 30.7742049 0 16.5097666 12.879453 30.5100486 30.052057 30.5100486 8.049658 0 14.891867-3.037797 20.526628-7.5284535 1.073288-.9245469 2.549058-.7924688 3.354024 0l8.31798 8.4530005c1.073288.9245469.804966 2.6415626-.134161 3.5661095-9.122946 8.7171568-20.660789 12.8115789-32.601115 12.8115789-26.832194 0-48.43211-21.0004231-48.43211-47.4160496zm109.783427 43.5857838v-87.43572384c0-1.32078133 1.073288-2.50948452 2.549058-2.50948452h38.370037c16.099316 0 29.247091 12.67950076 29.247091 28.39679856 0 12.1511882-8.183819 22.0570481-19.855823 26.6797828l18.380053 33.5478456c.939126 1.7170158 0 3.8302659-2.280737 3.8302659h-14.086902c-1.207448 0-1.878253-.6603907-2.146575-1.1887032l-17.843409-35.0007052h-14.891867v33.6799239c0 1.3207813-1.207449 2.5094845-2.549059 2.5094845h-12.342809c-1.47577 0-2.549058-1.1887032-2.549058-2.5094845zm17.575087-47.812284h21.868237c7.110532 0 13.281936-6.0755941 13.281936-13.4719696 0-7.000141-6.171404-12.8115788-13.281936-12.8115788h-21.868237z"/><path d="m719.435375 17.2602105h30.535426 33.451969c.854133 0 1.546544-.6924116 1.546544-1.5465446v-13.41667734c0-.85413301-.692411-1.54654462-1.546544-1.54654462h-33.451969-30.535426c-.854133 0-1.546545.69241161-1.546545 1.54654462v13.41667734c0 .854133.692412 1.5465446 1.546545 1.5465446z"/><path d="m717.88883 61.3779757c0-18.3441851 14.83421-33.1112541 33.493594-33.1112541 18.659383 0 33.58689 14.767069 33.58689 33.1112541 0 18.344185-14.927507 32.9278122-33.58689 32.9278122-18.659384 0-33.493594-14.5836272-33.493594-32.9278122zm16.770121-.0199394c0 9.0444808 7.52646 16.437985 16.733585 16.437985s16.806657-7.3935042 16.806657-16.437985-7.599532-16.5815482-16.806657-16.5815482-16.733585 7.5370674-16.733585 16.5815482z"/></g><path d="m491.2 0c4.418278 0 8 3.581722 8 8v96.302528 15.713823c0 2.262578-1.350747 4.297601-3.416027 5.183301l-.223985.090456-44.359988 16.824892v36.236288c0 4.334914-3.447838 7.864543-7.750821 7.996193l-.249179.003807c-4.334914 0-7.864543-3.447838-7.996193-7.750821l-.003807-.249179v-36.235288l-44.359988-16.825892c-2.115506-.80243-3.539202-2.787102-3.634872-5.03225l-.00514-.241507v-112.016351c0-4.418278 3.581722-8 8-8s8 3.581722 8 8v36.394l32 12.138v-30.3774333c0-4.3349142 3.447838-7.8645428 7.750821-7.9961931l.249179-.0038069c4.334914 0 7.864543 3.4478378 7.996193 7.7508207l.003807.2491793v30.3774333l32-12.138v-36.394c0-4.418278 3.581722-8 8-8zm-8 93.401-32 12.138v15.335l32-12.138zm-80 .001v15.334l32 12.138v-15.334zm80-32.572-32 12.138v16.136l32-12.138zm-80 .001v16.135l32 12.138v-16.135z" fill="#fbc513"/></g></svg>